<svg width="64" height="64" viewBox="0 0 64 64" fill="none" xmlns="http://www.w3.org/2000/svg">
<path d="M28 42.828L18 32.826L20.826 30L28 37.172L43.17 22L46 24.83L28 42.828Z" fill="#00AD2F"/>
<path d="M32 4C26.4621 4 21.0486 5.64217 16.444 8.71885C11.8395 11.7955 8.25064 16.1685 6.13139 21.2849C4.01213 26.4012 3.45764 32.0311 4.53802 37.4625C5.61841 42.894 8.28515 47.8831 12.201 51.799C16.1169 55.7149 21.106 58.3816 26.5375 59.462C31.969 60.5424 37.5988 59.9879 42.7151 57.8686C47.8315 55.7494 52.2045 52.1605 55.2812 47.556C58.3578 42.9514 60 37.5379 60 32C60 24.5739 57.05 17.452 51.799 12.201C46.548 6.94999 39.4261 4 32 4ZM32 56C27.2533 56 22.6131 54.5924 18.6663 51.9553C14.7195 49.3181 11.6434 45.5698 9.8269 41.1844C8.0104 36.799 7.53512 31.9734 8.46117 27.3178C9.38721 22.6623 11.673 18.3859 15.0294 15.0294C18.3859 11.673 22.6623 9.3872 27.3178 8.46115C31.9734 7.53511 36.799 8.01039 41.1844 9.82689C45.5698 11.6434 49.3181 14.7195 51.9553 18.6663C54.5924 22.6131 56 27.2532 56 32C56 38.3652 53.4714 44.4697 48.9706 48.9706C44.4697 53.4714 38.3652 56 32 56Z" fill="#00AD2F"/>
</svg>
